<svg xmlns="http://www.w3.org/2000/svg" width="620" height="628" viewBox="0 0 620 628">
  <g id="Groupe_3" data-name="Groupe 3" transform="translate(-593.5 -48)">
    <g id="Rectangle_19" data-name="Rectangle 19" transform="translate(594 60)" fill="#fff" stroke="#f6f6f6" stroke-width="1">
      <rect width="619" height="606" stroke="none"/>
      <rect x="0.5" y="0.5" width="618" height="605" fill="none"/>
    </g>
    <g id="Rectangle_20" data-name="Rectangle 20" transform="translate(894 656)" fill="#333" stroke="#333" stroke-width="1">
      <rect width="20" height="20" stroke="none"/>
      <rect x="0.5" y="0.5" width="19" height="19" fill="none"/>
    </g>
    <g id="Rectangle_21" data-name="Rectangle 21" transform="translate(874 659)" fill="#333" stroke="#333" stroke-width="1">
      <rect width="15" height="15" stroke="none"/>
      <rect x="0.5" y="0.5" width="14" height="14" fill="none"/>
    </g>
    <g id="Rectangle_22" data-name="Rectangle 22" transform="translate(919 659)" fill="#333" stroke="#333" stroke-width="1">
      <rect width="15" height="15" stroke="none"/>
      <rect x="0.5" y="0.5" width="14" height="14" fill="none"/>
    </g>
    <g id="Rectangle_23" data-name="Rectangle 23" transform="translate(891 48)" fill="#333" stroke="#333" stroke-width="1">
      <rect width="25" height="25" stroke="none"/>
      <rect x="0.5" y="0.5" width="24" height="24" fill="none"/>
    </g>
    <g id="Rectangle_24" data-name="Rectangle 24" transform="translate(866 51)" fill="#333" stroke="#333" stroke-width="1">
      <rect width="20" height="20" stroke="none"/>
      <rect x="0.5" y="0.5" width="19" height="19" fill="none"/>
    </g>
    <g id="Rectangle_25" data-name="Rectangle 25" transform="translate(921 51)" fill="#333" stroke="#333" stroke-width="1">
      <rect width="20" height="20" stroke="none"/>
      <rect x="0.5" y="0.5" width="19" height="19" fill="none"/>
    </g>
    <g id="Rectangle_26" data-name="Rectangle 26" transform="translate(846 54)" fill="#333" stroke="#333" stroke-width="1">
      <rect width="15" height="15" stroke="none"/>
      <rect x="0.5" y="0.5" width="14" height="14" fill="none"/>
    </g>
    <g id="Rectangle_27" data-name="Rectangle 27" transform="translate(946 54)" fill="#333" stroke="#333" stroke-width="1">
      <rect width="15" height="15" stroke="none"/>
      <rect x="0.5" y="0.5" width="14" height="14" fill="none"/>
    </g>
    <g id="Rectangle_28" data-name="Rectangle 28" transform="translate(966 56)" fill="#333" stroke="#333" stroke-width="1">
      <rect width="10" height="10" stroke="none"/>
      <rect x="0.5" y="0.5" width="9" height="9" fill="none"/>
    </g>
    <g id="Rectangle_29" data-name="Rectangle 29" transform="translate(831 56)" fill="#333" stroke="#333" stroke-width="1">
      <rect width="10" height="10" stroke="none"/>
      <rect x="0.5" y="0.5" width="9" height="9" fill="none"/>
    </g>
    <line id="Ligne_11" data-name="Ligne 11" x2="25" transform="translate(1188 665.5)" fill="none" stroke="#707070" stroke-width="1"/>
    <line id="Ligne_12" data-name="Ligne 12" y1="25" transform="translate(1213 641)" fill="none" stroke="#707070" stroke-width="1"/>
    <line id="Ligne_13" data-name="Ligne 13" x2="25" transform="translate(594 665.5)" fill="none" stroke="#707070" stroke-width="1"/>
    <line id="Ligne_14" data-name="Ligne 14" y1="25" transform="translate(594 641)" fill="none" stroke="#707070" stroke-width="1"/>
    <line id="Ligne_15" data-name="Ligne 15" x2="25" transform="translate(594 60)" fill="none" stroke="#707070" stroke-width="1"/>
    <line id="Ligne_16" data-name="Ligne 16" y1="25" transform="translate(594 60)" fill="none" stroke="#707070" stroke-width="1"/>
    <line id="Ligne_17" data-name="Ligne 17" y1="25" transform="translate(1213 60)" fill="none" stroke="#707070" stroke-width="1"/>
    <line id="Ligne_18" data-name="Ligne 18" x2="25" transform="translate(1188 60)" fill="none" stroke="#707070" stroke-width="1"/>
  </g>
</svg>
