<svg xmlns="http://www.w3.org/2000/svg" width="394" height="123" viewBox="0 0 394 123">
  <g id="Groupe_1" data-name="Groupe 1" transform="translate(-38 -40)">
    <g id="Rectangle_1" data-name="Rectangle 1" transform="translate(51 50)" fill="#fdfdfd" stroke="#f6f6f6" stroke-width="1">
      <rect width="371" height="99" stroke="none"/>
      <rect x="0.5" y="0.5" width="370" height="98" fill="none"/>
    </g>
    <g id="Rectangle_2" data-name="Rectangle 2" transform="translate(387 40)" fill="#fff" stroke="#333" stroke-width="1">
      <rect width="20" height="20" stroke="none"/>
      <rect x="0.5" y="0.5" width="19" height="19" fill="none"/>
    </g>
    <g id="Rectangle_3" data-name="Rectangle 3" transform="translate(412 45)" fill="#fff" stroke="#333" stroke-width="1">
      <rect width="15" height="15" stroke="none"/>
      <rect x="0.5" y="0.5" width="14" height="14" fill="none"/>
    </g>
    <g id="Rectangle_4" data-name="Rectangle 4" transform="translate(412 65)" fill="#fff" stroke="#333" stroke-width="1">
      <rect width="20" height="20" stroke="none"/>
      <rect x="0.5" y="0.5" width="19" height="19" fill="none"/>
    </g>
    <line id="Ligne_3" data-name="Ligne 3" y1="25" transform="translate(51.5 50)" fill="none" stroke="#707070" stroke-width="1"/>
    <line id="Ligne_4" data-name="Ligne 4" x2="25" transform="translate(51 50)" fill="none" stroke="#707070" stroke-width="1"/>
    <line id="Ligne_5" data-name="Ligne 5" x2="25" transform="translate(397 149)" fill="none" stroke="#707070" stroke-width="1"/>
    <line id="Ligne_6" data-name="Ligne 6" y1="25" transform="translate(422 124.5)" fill="none" stroke="#707070" stroke-width="1"/>
    <g id="Rectangle_5" data-name="Rectangle 5" transform="translate(392 65)" fill="#fff" stroke="#333" stroke-width="1">
      <rect width="15" height="15" stroke="none"/>
      <rect x="0.5" y="0.5" width="14" height="14" fill="none"/>
    </g>
    <g id="Rectangle_6" data-name="Rectangle 6" transform="translate(38 118)" fill="#fff" stroke="#333" stroke-width="1">
      <rect width="20" height="20" stroke="none"/>
      <rect x="0.5" y="0.5" width="19" height="19" fill="none"/>
    </g>
    <g id="Rectangle_7" data-name="Rectangle 7" transform="translate(63 123)" fill="#fff" stroke="#333" stroke-width="1">
      <rect width="15" height="15" stroke="none"/>
      <rect x="0.5" y="0.5" width="14" height="14" fill="none"/>
    </g>
    <g id="Rectangle_8" data-name="Rectangle 8" transform="translate(63 143)" fill="#fff" stroke="#333" stroke-width="1">
      <rect width="20" height="20" stroke="none"/>
      <rect x="0.5" y="0.5" width="19" height="19" fill="none"/>
    </g>
    <g id="Rectangle_9" data-name="Rectangle 9" transform="translate(43 143)" fill="#fff" stroke="#333" stroke-width="1">
      <rect width="15" height="15" stroke="none"/>
      <rect x="0.5" y="0.5" width="14" height="14" fill="none"/>
    </g>
  </g>
</svg>
